# Made in Blockbench 5.1.6
mtllib bench.mtl

g side
v 1.5 0.22282625 -0.050000000000000044
v 1.5 0.22282625 -0.14166687499999997
v 1.5 -0.5 -0.050000000000000044
v 1.5 -0.5 -0.14166687499999997
v 1.38888875 0.22282625 -0.050000000000000044
v 1.38888875 0.22282625 -0.14166687499999997
v 1.38888875 -0.5 -0.050000000000000044
v 1.38888875 -0.5 -0.14166687499999997
v 1.5 0.016304374999999982 -0.050000000000000044
v 1.5 -0.08695625000000001 -0.050000000000000044
v 1.5 0.016304374999999982 0.40833312499999996
v 1.5 -0.08695625000000001 0.40833312499999996
v 1.38888875 0.016304374999999982 -0.050000000000000044
v 1.38888875 -0.08695625000000001 -0.050000000000000044
v 1.38888875 0.016304374999999982 0.40833312499999996
v 1.38888875 -0.08695625000000001 0.40833312499999996
v 1.5 0.27445624999999996 -0.1875
v 1.5 0.22282625 -0.1875
v 1.5 0.27445624999999996 0.40833312499999996
v 1.5 0.22282625 0.40833312499999996
v 1.38888875 0.27445624999999996 -0.1875
v 1.38888875 0.22282625 -0.1875
v 1.38888875 0.27445624999999996 0.40833312499999996
v 1.38888875 0.22282625 0.40833312499999996
v 1.5 0.22282625 -0.1875
v 1.5 0.27445624999999996 -0.1875
v 1.38888875 0.22282625 -0.1875
v 1.38888875 0.27445624999999996 -0.1875
v 1.444444375 0.22282625 0.40833312499999996
v 1.444444375 0.22282625 -0.050000000000000044
v 1.444444375 0.016304374999999982 0.40833312499999996
v 1.444444375 0.016304374999999982 -0.050000000000000044
v -0.38888875 0.22282625 -0.050000000000000044
v -0.38888875 0.22282625 -0.14166687499999997
v -0.38888875 -0.5 -0.050000000000000044
v -0.38888875 -0.5 -0.14166687499999997
v -0.5 0.22282625 -0.050000000000000044
v -0.5 0.22282625 -0.14166687499999997
v -0.5 -0.5 -0.050000000000000044
v -0.5 -0.5 -0.14166687499999997
v -0.38888875 0.016304374999999982 -0.050000000000000044
v -0.38888875 -0.08695625000000001 -0.050000000000000044
v -0.38888875 0.016304374999999982 0.40833312499999996
v -0.38888875 -0.08695625000000001 0.40833312499999996
v -0.5 0.016304374999999982 -0.050000000000000044
v -0.5 -0.08695625000000001 -0.050000000000000044
v -0.5 0.016304374999999982 0.40833312499999996
v -0.5 -0.08695625000000001 0.40833312499999996
v -0.38888875 0.27445624999999996 -0.1875
v -0.38888875 0.22282625 -0.1875
v -0.38888875 0.27445624999999996 0.40833312499999996
v -0.38888875 0.22282625 0.40833312499999996
v -0.5 0.27445624999999996 -0.1875
v -0.5 0.22282625 -0.1875
v -0.5 0.27445624999999996 0.40833312499999996
v -0.5 0.22282625 0.40833312499999996
v -0.38888875 0.22282625 -0.1875
v -0.38888875 0.27445624999999996 -0.1875
v -0.5 0.22282625 -0.1875
v -0.5 0.27445624999999996 -0.1875
v -0.4444443749999998 0.22282625 0.40833312499999996
v -0.4444443749999998 0.22282625 -0.050000000000000044
v -0.4444443749999998 0.016304374999999982 0.40833312499999996
v -0.4444443749999998 0.016304374999999982 -0.050000000000000044
v 1.5 0.625 0.5
v 1.5 0.625 0.40833312499999996
v 1.5 -0.5 0.5
v 1.5 -0.5 0.40833312499999996
v 1.38888875 0.625 0.5
v 1.38888875 0.625 0.40833312499999996
v 1.38888875 -0.5 0.5
v 1.38888875 -0.5 0.40833312499999996
v -0.38888875 0.625 0.5
v -0.38888875 0.625 0.40833312499999996
v -0.38888875 -0.5 0.5
v -0.38888875 -0.5 0.40833312499999996
v -0.5 0.625 0.5
v -0.5 0.625 0.40833312499999996
v -0.5 -0.5 0.5
v -0.5 -0.5 0.40833312499999996
vt 0.16666666666666666 0.875
vt 0.08333333333333333 0.875
vt 0.08333333333333333 0
vt 0.16666666666666666 0
vt 0.5 0
vt 0.5 0.875
vt 0.4166666666666667 0.875
vt 0.4166666666666667 0
vt 0 0.875
vt 0.08333333333333333 0.875
vt 0.08333333333333333 1
vt 0 1
vt 0.08333333333333333 0.875
vt 0.08333333333333333 1
vt 0 1
vt 0 0.875
vt 0.5 0
vt 0.5 0.875
vt 0.4166666666666667 0.875
vt 0.4166666666666667 0
vt 0.08333333333333333 0.875
vt 0 0.875
vt 0 0
vt 0.08333333333333333 0
vt 0.5416666666666666 0
vt 0.5416666666666666 0.125
vt 0.125 0.125
vt 0.125 0
vt 0.5416666666666666 0.375
vt 0.125 0.375
vt 0.125 0.25
vt 0.5416666666666666 0.25
vt 0.08333333333333333 0.1875
vt 0.08333333333333333 0.8125
vt 0 0.8125
vt 0 0.1875
vt 0.5833333333333334 0.1875
vt 0.6666666666666666 0.1875
vt 0.6666666666666666 0.8125
vt 0.5833333333333334 0.8125
vt 0.625 0.1875
vt 0.625 0.25
vt 0.08333333333333333 0.25
vt 0.08333333333333333 0.1875
vt 0.625 0.1875
vt 0.08333333333333333 0.1875
vt 0.08333333333333333 0.125
vt 0.625 0.125
vt 0.125 0.0625
vt 0.125 0.875
vt 0.041666666666666664 0.875
vt 0.041666666666666664 0.0625
vt 0.08333333333333333 1
vt 0 1
vt 0 0.25
vt 0.08333333333333333 0.25
vt 0.08333333333333333 0.875
vt 0.08333333333333333 0.9375
vt 0 0.9375
vt 0 0.875
vt 0.6666666666666666 1
vt 1 1
vt 1 0.75
vt 0.6666666666666666 0.75
vt 0.2916666666666667 0.875
vt 0.20833333333333334 0.875
vt 0.20833333333333334 0
vt 0.2916666666666667 0
vt 0.6666666666666666 0
vt 0.6666666666666666 0.875
vt 0.5833333333333334 0.875
vt 0.5833333333333334 0
vt 0 0.875
vt 0.08333333333333333 0.875
vt 0.08333333333333333 1
vt 0 1
vt 0.08333333333333333 0.875
vt 0.08333333333333333 1
vt 0 1
vt 0 0.875
vt 0.3333333333333333 0
vt 0.3333333333333333 0.875
vt 0.25 0.875
vt 0.25 0
vt 0.6666666666666666 0.875
vt 0.5833333333333334 0.875
vt 0.5833333333333334 0
vt 0.6666666666666666 0
vt 0.5416666666666666 0.0625
vt 0.5416666666666666 0.1875
vt 0.125 0.1875
vt 0.125 0.0625
vt 0.5416666666666666 0.25
vt 0.125 0.25
vt 0.125 0.125
vt 0.5416666666666666 0.125
vt 0.5833333333333334 0.1875
vt 0.5833333333333334 0.8125
vt 0.5 0.8125
vt 0.5 0.1875
vt 0 0.1875
vt 0.08333333333333333 0.1875
vt 0.08333333333333333 0.8125
vt 0 0.8125
vt 0.5833333333333334 0.3125
vt 0.5833333333333334 0.375
vt 0.041666666666666664 0.375
vt 0.041666666666666664 0.3125
vt 0.625 0.125
vt 0.08333333333333333 0.125
vt 0.08333333333333333 0.0625
vt 0.625 0.0625
vt 0.625 0.125
vt 0.625 0.9375
vt 0.5416666666666666 0.9375
vt 0.5416666666666666 0.125
vt 0.08333333333333333 1
vt 0 1
vt 0 0.25
vt 0.08333333333333333 0.25
vt 0.5833333333333334 0.8125
vt 0.5833333333333334 0.875
vt 0.5 0.875
vt 0.5 0.8125
vt 0.6666666666666666 1
vt 1 1
vt 1 0.75
vt 0.6666666666666666 0.75
vt 0.16666666666666666 1
vt 0.08333333333333333 1
vt 0.08333333333333333 0
vt 0.16666666666666666 0
vt 0.5833333333333334 0
vt 0.5833333333333334 1
vt 0.5 1
vt 0.5 0
vt 0 0.875
vt 0.08333333333333333 0.875
vt 0.08333333333333333 1
vt 0 1
vt 0.08333333333333333 0.875
vt 0.08333333333333333 1
vt 0 1
vt 0 0.875
vt 0.6666666666666666 0
vt 0.6666666666666666 1
vt 0.5833333333333334 1
vt 0.5833333333333334 0
vt 0.08333333333333333 1
vt 0 1
vt 0 0
vt 0.08333333333333333 0
vt 0.16666666666666666 1
vt 0.08333333333333333 1
vt 0.08333333333333333 0
vt 0.16666666666666666 0
vt 0.6666666666666666 0
vt 0.6666666666666666 1
vt 0.5833333333333334 1
vt 0.5833333333333334 0
vt 0.5833333333333334 0.875
vt 0.6666666666666666 0.875
vt 0.6666666666666666 1
vt 0.5833333333333334 1
vt 0.08333333333333333 0.875
vt 0.08333333333333333 1
vt 0 1
vt 0 0.875
vt 0.08333333333333333 0
vt 0.08333333333333333 1
vt 0 1
vt 0 0
vt 0.6666666666666666 1
vt 0.5833333333333334 1
vt 0.5833333333333334 0
vt 0.6666666666666666 0
vn 1 0 0
vn -1 0 0
vn 0 1 0
vn 0 -1 0
vn 0 0 1
vn 0 0 -1
vn 1 0 0
vn -1 0 0
vn 0 1 0
vn 0 -1 0
vn 1 0 0
vn -1 0 0
vn 0 1 0
vn 0 -1 0
vn 0 0 1
vn -1 0 0
vn 1 0 0
vn -1 0 0
vn 0 1 0
vn 0 -1 0
vn 0 0 1
vn 0 0 -1
vn 1 0 0
vn -1 0 0
vn 0 1 0
vn 0 -1 0
vn 1 0 0
vn -1 0 0
vn 0 1 0
vn 0 -1 0
vn 0 0 1
vn -1 0 0
vn 1 0 0
vn -1 0 0
vn 0 1 0
vn 0 -1 0
vn 0 0 1
vn 0 0 -1
vn 1 0 0
vn -1 0 0
vn 0 1 0
vn 0 -1 0
vn 0 0 1
vn 0 0 -1
usemtl m_b70d5294-51f2-f900-9345-0c75707c7636
f 2/1/1 1/2/1 3/3/1 4/4/1
f 7/5/2 5/6/2 6/7/2 8/8/2
f 5/9/3 1/10/3 2/11/3 6/12/3
f 4/13/4 3/14/4 7/15/4 8/16/4
f 3/17/5 1/18/5 5/19/5 7/20/5
f 6/21/6 2/22/6 4/23/6 8/24/6
f 10/25/7 9/26/7 11/27/7 12/28/7
f 15/29/8 13/30/8 14/31/8 16/32/8
f 11/33/9 9/34/9 13/35/9 15/36/9
f 14/37/10 10/38/10 12/39/10 16/40/10
f 18/41/11 17/42/11 19/43/11 20/44/11
f 23/45/12 21/46/12 22/47/12 24/48/12
f 19/49/13 17/50/13 21/51/13 23/52/13
f 22/53/14 18/54/14 20/55/14 24/56/14
f 25/57/15 26/58/15 28/59/15 27/60/15
f 29/61/16 30/62/16 32/63/16 31/64/16
f 34/65/17 33/66/17 35/67/17 36/68/17
f 39/69/18 37/70/18 38/71/18 40/72/18
f 37/73/19 33/74/19 34/75/19 38/76/19
f 36/77/20 35/78/20 39/79/20 40/80/20
f 35/81/21 33/82/21 37/83/21 39/84/21
f 38/85/22 34/86/22 36/87/22 40/88/22
f 42/89/23 41/90/23 43/91/23 44/92/23
f 47/93/24 45/94/24 46/95/24 48/96/24
f 43/97/25 41/98/25 45/99/25 47/100/25
f 46/101/26 42/102/26 44/103/26 48/104/26
f 50/105/27 49/106/27 51/107/27 52/108/27
f 55/109/28 53/110/28 54/111/28 56/112/28
f 51/113/29 49/114/29 53/115/29 55/116/29
f 54/117/30 50/118/30 52/119/30 56/120/30
f 57/121/31 58/122/31 60/123/31 59/124/31
f 61/125/32 62/126/32 64/127/32 63/128/32
f 66/129/33 65/130/33 67/131/33 68/132/33
f 71/133/34 69/134/34 70/135/34 72/136/34
f 69/137/35 65/138/35 66/139/35 70/140/35
f 68/141/36 67/142/36 71/143/36 72/144/36
f 67/145/37 65/146/37 69/147/37 71/148/37
f 70/149/38 66/150/38 68/151/38 72/152/38
f 74/153/39 73/154/39 75/155/39 76/156/39
f 79/157/40 77/158/40 78/159/40 80/160/40
f 77/161/41 73/162/41 74/163/41 78/164/41
f 76/165/42 75/166/42 79/167/42 80/168/42
f 75/169/43 73/170/43 77/171/43 79/172/43
f 78/173/44 74/174/44 76/175/44 80/176/44
g slats
v 1.4375 0.578125 0.46875
v 1.4375 0.578125 0.42625
v 1.4375 0.43923625 0.46875
v 1.4375 0.43923625 0.42625
v -0.4375 0.578125 0.46875
v -0.4375 0.578125 0.42625
v -0.4375 0.43923625 0.46875
v -0.4375 0.43923625 0.42625
v 1.4375 0.39294 0.46875
v 1.4375 0.39294 0.42625
v 1.4375 0.254050625 0.46875
v 1.4375 0.254050625 0.42625
v -0.4375 0.39294 0.46875
v -0.4375 0.39294 0.42625
v -0.4375 0.254050625 0.46875
v -0.4375 0.254050625 0.42625
v 1.4375 0.207754375 0.46875
v 1.4375 0.207754375 0.42625
v 1.4375 0.06886562499999999 0.46875
v 1.4375 0.06886562499999999 0.42625
v -0.4375 0.207754375 0.46875
v -0.4375 0.207754375 0.42625
v -0.4375 0.06886562499999999 0.46875
v -0.4375 0.06886562499999999 0.42625
v 1.4375 -0.0005787499999999612 0.2775
v 1.4375 -0.046875 0.2775
v 1.4375 -0.0005787499999999612 0.405
v 1.4375 -0.046875 0.405
v -0.4375 -0.0005787499999999612 0.2775
v -0.4375 -0.046875 0.2775
v -0.4375 -0.0005787499999999612 0.405
v -0.4375 -0.046875 0.405
v 1.4375 -0.0005787499999999612 0.10749999999999998
v 1.4375 -0.046875 0.10749999999999998
v 1.4375 -0.0005787499999999612 0.235
v 1.4375 -0.046875 0.235
v -0.4375 -0.0005787499999999612 0.10749999999999998
v -0.4375 -0.046875 0.10749999999999998
v -0.4375 -0.0005787499999999612 0.235
v -0.4375 -0.046875 0.235
v 1.4375 -0.0005787499999999612 -0.0625
v 1.4375 -0.046875 -0.0625
v 1.4375 -0.0005787499999999612 0.065
v 1.4375 -0.046875 0.065
v -0.4375 -0.0005787499999999612 -0.0625
v -0.4375 -0.046875 -0.0625
v -0.4375 -0.0005787499999999612 0.065
v -0.4375 -0.046875 0.065
vt 2 1
vt 0 1
vt 0 0.8125
vt 2 0.8125
vt 2 0.8125
vt 2 1
vt 0 1
vt 0 0.8125
vt 0 0.9375
vt 2 0.9375
vt 2 1
vt 0 1
vt 2 0.625
vt 2 0.6875
vt 0 0.6875
vt 0 0.625
vt 1 0.6736125
vt 1 0.8125
vt -0.875 0.8125
vt -0.875 0.6736125
vt 1.875 0.875
vt 0 0.875
vt 0 0.7361125
vt 1.875 0.7361125
vt 2 1
vt 0 1
vt 0 0.8125
vt 2 0.8125
vt 2 0.8125
vt 2 1
vt 0 1
vt 0 0.8125
vt 0 0.8125
vt 2 0.8125
vt 2 0.875
vt 0 0.875
vt 2 0.375
vt 2 0.4375
vt 0 0.4375
vt 0 0.375
vt 1 0.42361249999999784
vt 1 0.5624999999999978
vt -0.875 0.5624999999999978
vt -0.875 0.42361249999999784
vt 1 0.5624999999999978
vt -0.875 0.5624999999999978
vt -0.875 0.42361249999999784
vt 1 0.42361249999999784
vt 2 1
vt 0 1
vt 0 0.8125
vt 2 0.8125
vt 2 0.8125
vt 2 1
vt 0 1
vt 0 0.8125
vt 0 0.5625
vt 2 0.5625
vt 2 0.625
vt 0 0.625
vt 2 0.125
vt 2 0.1875
vt 0 0.1875
vt 0 0.125
vt 1 0.1736062499999973
vt 1 0.3124999999999972
vt -0.875 0.3124999999999972
vt -0.875 0.1736062499999973
vt 1 0.3124999999999972
vt -0.875 0.3124999999999972
vt -0.875 0.1736062499999973
vt 1 0.1736062499999973
vt 2 1
vt 0 1
vt 0 0.8125
vt 2 0.8125
vt 2 0.8125
vt 2 1
vt 0 1
vt 0 0.8125
vt 1 1
vt -1 1
vt -1 0.9375
vt 1 0.9375
vt 2 0.1875
vt 2 0.25
vt 0 0.25
vt 0 0.1875
vt 1 0.7475000000000034
vt 1 0.8750000000000033
vt -0.875 0.8750000000000033
vt -0.875 0.7475000000000034
vt 0 0.6849999999999989
vt 1.875 0.6849999999999989
vt 1.875 0.8124999999999989
vt 0 0.8124999999999989
vt 2 1
vt 0 1
vt 0 0.8125
vt 2 0.8125
vt 2 0.8125
vt 2 1
vt 0 1
vt 0 0.8125
vt 1 0.75
vt -1 0.75
vt -1 0.6875
vt 1 0.6875
vt 2 0.0625
vt 2 0.125
vt 0 0.125
vt 0 0.0625
vt 1 0.4350000000000017
vt 1 0.5625000000000018
vt -0.875 0.5625000000000018
vt -0.875 0.4350000000000017
vt 0 0.4975000000000005
vt 1.875 0.4975000000000005
vt 1.875 0.6250000000000006
vt 0 0.6250000000000006
vt 2 1
vt 0 1
vt 0 0.8125
vt 2 0.8125
vt 2 0.8125
vt 2 1
vt 0 1
vt 0 0.8125
vt 1 0.125
vt -1 0.125
vt -1 0.0625
vt 1 0.0625
vt 1 0
vt 1 0.0625
vt -1 0.0625
vt -1 0
vt 1 0.24750000000000005
vt 1 0.375
vt -0.875 0.375
vt -0.875 0.24750000000000005
vt 0 0.18500000000000227
vt 1.875 0.18500000000000227
vt 1.875 0.3125000000000022
vt 0 0.3125000000000022
vn 1 0 0
vn -1 0 0
vn 0 1 0
vn 0 -1 0
vn 0 0 1
vn 0 0 -1
vn 1 0 0
vn -1 0 0
vn 0 1 0
vn 0 -1 0
vn 0 0 1
vn 0 0 -1
vn 1 0 0
vn -1 0 0
vn 0 1 0
vn 0 -1 0
vn 0 0 1
vn 0 0 -1
vn 1 0 0
vn -1 0 0
vn 0 0 -1
vn 0 0 1
vn 0 1 0
vn 0 -1 0
vn 1 0 0
vn -1 0 0
vn 0 0 -1
vn 0 0 1
vn 0 1 0
vn 0 -1 0
vn 1 0 0
vn -1 0 0
vn 0 0 -1
vn 0 0 1
vn 0 1 0
vn 0 -1 0
usemtl m_4a0f3dec-69aa-694d-1399-c7cbbc7b6b3e
f 82/177/45 81/178/45 83/179/45 84/180/45
f 87/181/46 85/182/46 86/183/46 88/184/46
f 85/185/47 81/186/47 82/187/47 86/188/47
f 84/189/48 83/190/48 87/191/48 88/192/48
f 83/193/49 81/194/49 85/195/49 87/196/49
f 86/197/50 82/198/50 84/199/50 88/200/50
f 90/201/51 89/202/51 91/203/51 92/204/51
f 95/205/52 93/206/52 94/207/52 96/208/52
f 93/209/53 89/210/53 90/211/53 94/212/53
f 92/213/54 91/214/54 95/215/54 96/216/54
f 91/217/55 89/218/55 93/219/55 95/220/55
f 94/221/56 90/222/56 92/223/56 96/224/56
f 98/225/57 97/226/57 99/227/57 100/228/57
f 103/229/58 101/230/58 102/231/58 104/232/58
f 101/233/59 97/234/59 98/235/59 102/236/59
f 100/237/60 99/238/60 103/239/60 104/240/60
f 99/241/61 97/242/61 101/243/61 103/244/61
f 102/245/62 98/246/62 100/247/62 104/248/62
f 106/249/63 105/250/63 107/251/63 108/252/63
f 111/253/64 109/254/64 110/255/64 112/256/64
f 109/257/65 105/258/65 106/259/65 110/260/65
f 108/261/66 107/262/66 111/263/66 112/264/66
f 107/265/67 105/266/67 109/267/67 111/268/67
f 110/269/68 106/270/68 108/271/68 112/272/68
f 114/273/69 113/274/69 115/275/69 116/276/69
f 119/277/70 117/278/70 118/279/70 120/280/70
f 117/281/71 113/282/71 114/283/71 118/284/71
f 116/285/72 115/286/72 119/287/72 120/288/72
f 115/289/73 113/290/73 117/291/73 119/292/73
f 118/293/74 114/294/74 116/295/74 120/296/74
f 122/297/75 121/298/75 123/299/75 124/300/75
f 127/301/76 125/302/76 126/303/76 128/304/76
f 125/305/77 121/306/77 122/307/77 126/308/77
f 124/309/78 123/310/78 127/311/78 128/312/78
f 123/313/79 121/314/79 125/315/79 127/316/79
f 126/317/80 122/318/80 124/319/80 128/320/80
