# Made in Blockbench 5.1.6
mtllib chair.mtl

g side
v -0.45138875 0.22282625 -0.050000000000000044
v -0.45138875 0.22282625 -0.14166687499999997
v -0.45138875 -0.5 -0.050000000000000044
v -0.45138875 -0.5 -0.14166687499999997
v -0.5625 0.22282625 -0.050000000000000044
v -0.5625 0.22282625 -0.14166687499999997
v -0.5625 -0.5 -0.050000000000000044
v -0.5625 -0.5 -0.14166687499999997
v -0.45138875 0.016304374999999982 -0.050000000000000044
v -0.45138875 -0.08695625000000001 -0.050000000000000044
v -0.45138875 0.016304374999999982 0.40833312499999996
v -0.45138875 -0.08695625000000001 0.40833312499999996
v -0.5625 0.016304374999999982 -0.050000000000000044
v -0.5625 -0.08695625000000001 -0.050000000000000044
v -0.5625 0.016304374999999982 0.40833312499999996
v -0.5625 -0.08695625000000001 0.40833312499999996
v -0.45138875 0.27445624999999996 -0.1875
v -0.45138875 0.22282625 -0.1875
v -0.45138875 0.27445624999999996 0.40833312499999996
v -0.45138875 0.22282625 0.40833312499999996
v -0.5625 0.27445624999999996 -0.1875
v -0.5625 0.22282625 -0.1875
v -0.5625 0.27445624999999996 0.40833312499999996
v -0.5625 0.22282625 0.40833312499999996
v -0.45138875 0.22282625 -0.1875
v -0.45138875 0.27445624999999996 -0.1875
v -0.5625 0.22282625 -0.1875
v -0.5625 0.27445624999999996 -0.1875
v -0.5069443749999998 0.22282625 0.40833312499999996
v -0.5069443749999998 0.22282625 -0.050000000000000044
v -0.5069443749999998 0.016304374999999982 0.40833312499999996
v -0.5069443749999998 0.016304374999999982 -0.050000000000000044
v -0.45138875 0.625 0.5
v -0.45138875 0.625 0.40833312499999996
v -0.45138875 -0.5 0.5
v -0.45138875 -0.5 0.40833312499999996
v -0.5625 0.625 0.5
v -0.5625 0.625 0.40833312499999996
v -0.5625 -0.5 0.5
v -0.5625 -0.5 0.40833312499999996
v 0.5625 0.22282625 -0.050000000000000044
v 0.5625 0.22282625 -0.14166687499999997
v 0.5625 -0.5 -0.050000000000000044
v 0.5625 -0.5 -0.14166687499999997
v 0.45138875 0.22282625 -0.050000000000000044
v 0.45138875 0.22282625 -0.14166687499999997
v 0.45138875 -0.5 -0.050000000000000044
v 0.45138875 -0.5 -0.14166687499999997
v 0.5625 0.016304374999999982 -0.050000000000000044
v 0.5625 -0.08695625000000001 -0.050000000000000044
v 0.5625 0.016304374999999982 0.40833312499999996
v 0.5625 -0.08695625000000001 0.40833312499999996
v 0.45138875 0.016304374999999982 -0.050000000000000044
v 0.45138875 -0.08695625000000001 -0.050000000000000044
v 0.45138875 0.016304374999999982 0.40833312499999996
v 0.45138875 -0.08695625000000001 0.40833312499999996
v 0.5625 0.27445624999999996 -0.1875
v 0.5625 0.22282625 -0.1875
v 0.5625 0.27445624999999996 0.40833312499999996
v 0.5625 0.22282625 0.40833312499999996
v 0.45138875 0.27445624999999996 -0.1875
v 0.45138875 0.22282625 -0.1875
v 0.45138875 0.27445624999999996 0.40833312499999996
v 0.45138875 0.22282625 0.40833312499999996
v 0.5625 0.22282625 -0.1875
v 0.5625 0.27445624999999996 -0.1875
v 0.45138875 0.22282625 -0.1875
v 0.45138875 0.27445624999999996 -0.1875
v 0.506944375 0.22282625 0.40833312499999996
v 0.506944375 0.22282625 -0.050000000000000044
v 0.506944375 0.016304374999999982 0.40833312499999996
v 0.506944375 0.016304374999999982 -0.050000000000000044
v 0.5625 0.625 0.5
v 0.5625 0.625 0.40833312499999996
v 0.5625 -0.5 0.5
v 0.5625 -0.5 0.40833312499999996
v 0.45138875 0.625 0.5
v 0.45138875 0.625 0.40833312499999996
v 0.45138875 -0.5 0.5
v 0.45138875 -0.5 0.40833312499999996
vt 0.2916666666666667 0.875
vt 0.20833333333333334 0.875
vt 0.20833333333333334 0
vt 0.2916666666666667 0
vt 0.6666666666666666 0
vt 0.6666666666666666 0.875
vt 0.5833333333333334 0.875
vt 0.5833333333333334 0
vt 0 0.875
vt 0.08333333333333333 0.875
vt 0.08333333333333333 1
vt 0 1
vt 0.08333333333333333 0.875
vt 0.08333333333333333 1
vt 0 1
vt 0 0.875
vt 0.3333333333333333 0
vt 0.3333333333333333 0.875
vt 0.25 0.875
vt 0.25 0
vt 0.6666666666666666 0.875
vt 0.5833333333333334 0.875
vt 0.5833333333333334 0
vt 0.6666666666666666 0
vt 0.5416666666666666 0.0625
vt 0.5416666666666666 0.1875
vt 0.125 0.1875
vt 0.125 0.0625
vt 0.5416666666666666 0.25
vt 0.125 0.25
vt 0.125 0.125
vt 0.5416666666666666 0.125
vt 0.5833333333333334 0.1875
vt 0.5833333333333334 0.8125
vt 0.5 0.8125
vt 0.5 0.1875
vt 0 0.1875
vt 0.08333333333333333 0.1875
vt 0.08333333333333333 0.8125
vt 0 0.8125
vt 0.5833333333333334 0.3125
vt 0.5833333333333334 0.375
vt 0.041666666666666664 0.375
vt 0.041666666666666664 0.3125
vt 0.625 0.125
vt 0.08333333333333333 0.125
vt 0.08333333333333333 0.0625
vt 0.625 0.0625
vt 0.625 0.125
vt 0.625 0.9375
vt 0.5416666666666666 0.9375
vt 0.5416666666666666 0.125
vt 0.08333333333333333 1
vt 0 1
vt 0 0.25
vt 0.08333333333333333 0.25
vt 0.5833333333333334 0.8125
vt 0.5833333333333334 0.875
vt 0.5 0.875
vt 0.5 0.8125
vt 0.6666666666666666 1
vt 1 1
vt 1 0.75
vt 0.6666666666666666 0.75
vt 0.16666666666666666 1
vt 0.08333333333333333 1
vt 0.08333333333333333 0
vt 0.16666666666666666 0
vt 0.6666666666666666 0
vt 0.6666666666666666 1
vt 0.5833333333333334 1
vt 0.5833333333333334 0
vt 0.5833333333333334 0.875
vt 0.6666666666666666 0.875
vt 0.6666666666666666 1
vt 0.5833333333333334 1
vt 0.08333333333333333 0.875
vt 0.08333333333333333 1
vt 0 1
vt 0 0.875
vt 0.08333333333333333 0
vt 0.08333333333333333 1
vt 0 1
vt 0 0
vt 0.6666666666666666 1
vt 0.5833333333333334 1
vt 0.5833333333333334 0
vt 0.6666666666666666 0
vt 0.16666666666666666 0.875
vt 0.08333333333333333 0.875
vt 0.08333333333333333 0
vt 0.16666666666666666 0
vt 0.5 0
vt 0.5 0.875
vt 0.4166666666666667 0.875
vt 0.4166666666666667 0
vt 0.08333333333333333 0.875
vt 0.08333333333333333 1
vt 0 1
vt 0 0.875
vt 0.5 0
vt 0.5 0.875
vt 0.4166666666666667 0.875
vt 0.4166666666666667 0
vt 0.08333333333333333 0.875
vt 0 0.875
vt 0 0
vt 0.08333333333333333 0
vt 0.5416666666666666 0
vt 0.5416666666666666 0.125
vt 0.125 0.125
vt 0.125 0
vt 0.5416666666666666 0.375
vt 0.125 0.375
vt 0.125 0.25
vt 0.5416666666666666 0.25
vt 0.08333333333333333 0.1875
vt 0.08333333333333333 0.8125
vt 0 0.8125
vt 0 0.1875
vt 0.5833333333333334 0.1875
vt 0.6666666666666666 0.1875
vt 0.6666666666666666 0.8125
vt 0.5833333333333334 0.8125
vt 0.625 0.1875
vt 0.625 0.25
vt 0.08333333333333333 0.25
vt 0.08333333333333333 0.1875
vt 0.625 0.1875
vt 0.08333333333333333 0.1875
vt 0.08333333333333333 0.125
vt 0.625 0.125
vt 0.125 0.0625
vt 0.125 0.875
vt 0.041666666666666664 0.875
vt 0.041666666666666664 0.0625
vt 0.08333333333333333 1
vt 0 1
vt 0 0.25
vt 0.08333333333333333 0.25
vt 0.08333333333333333 0.875
vt 0.08333333333333333 0.9375
vt 0 0.9375
vt 0 0.875
vt 0.6666666666666666 1
vt 1 1
vt 1 0.75
vt 0.6666666666666666 0.75
vt 0.16666666666666666 1
vt 0.08333333333333333 1
vt 0.08333333333333333 0
vt 0.16666666666666666 0
vt 0.5833333333333334 0
vt 0.5833333333333334 1
vt 0.5 1
vt 0.5 0
vt 0 0.875
vt 0.08333333333333333 0.875
vt 0.08333333333333333 1
vt 0 1
vt 0.08333333333333333 0.875
vt 0.08333333333333333 1
vt 0 1
vt 0 0.875
vt 0.6666666666666666 0
vt 0.6666666666666666 1
vt 0.5833333333333334 1
vt 0.5833333333333334 0
vt 0.08333333333333333 1
vt 0 1
vt 0 0
vt 0.08333333333333333 0
vn 1 0 0
vn -1 0 0
vn 0 1 0
vn 0 -1 0
vn 0 0 1
vn 0 0 -1
vn 1 0 0
vn -1 0 0
vn 0 1 0
vn 0 -1 0
vn 1 0 0
vn -1 0 0
vn 0 1 0
vn 0 -1 0
vn 0 0 1
vn -1 0 0
vn 1 0 0
vn -1 0 0
vn 0 1 0
vn 0 -1 0
vn 0 0 1
vn 0 0 -1
vn 1 0 0
vn -1 0 0
vn 0 -1 0
vn 0 0 1
vn 0 0 -1
vn 1 0 0
vn -1 0 0
vn 0 1 0
vn 0 -1 0
vn 1 0 0
vn -1 0 0
vn 0 1 0
vn 0 -1 0
vn 0 0 1
vn -1 0 0
vn 1 0 0
vn -1 0 0
vn 0 1 0
vn 0 -1 0
vn 0 0 1
vn 0 0 -1
usemtl m_b70d5294-51f2-f900-9345-0c75707c7636
f 2/1/1 1/2/1 3/3/1 4/4/1
f 7/5/2 5/6/2 6/7/2 8/8/2
f 5/9/3 1/10/3 2/11/3 6/12/3
f 4/13/4 3/14/4 7/15/4 8/16/4
f 3/17/5 1/18/5 5/19/5 7/20/5
f 6/21/6 2/22/6 4/23/6 8/24/6
f 10/25/7 9/26/7 11/27/7 12/28/7
f 15/29/8 13/30/8 14/31/8 16/32/8
f 11/33/9 9/34/9 13/35/9 15/36/9
f 14/37/10 10/38/10 12/39/10 16/40/10
f 18/41/11 17/42/11 19/43/11 20/44/11
f 23/45/12 21/46/12 22/47/12 24/48/12
f 19/49/13 17/50/13 21/51/13 23/52/13
f 22/53/14 18/54/14 20/55/14 24/56/14
f 25/57/15 26/58/15 28/59/15 27/60/15
f 29/61/16 30/62/16 32/63/16 31/64/16
f 34/65/17 33/66/17 35/67/17 36/68/17
f 39/69/18 37/70/18 38/71/18 40/72/18
f 37/73/19 33/74/19 34/75/19 38/76/19
f 36/77/20 35/78/20 39/79/20 40/80/20
f 35/81/21 33/82/21 37/83/21 39/84/21
f 38/85/22 34/86/22 36/87/22 40/88/22
f 42/89/23 41/90/23 43/91/23 44/92/23
f 47/93/24 45/94/24 46/95/24 48/96/24
f 44/97/25 43/98/25 47/99/25 48/100/25
f 43/101/26 41/102/26 45/103/26 47/104/26
f 46/105/27 42/106/27 44/107/27 48/108/27
f 50/109/28 49/110/28 51/111/28 52/112/28
f 55/113/29 53/114/29 54/115/29 56/116/29
f 51/117/30 49/118/30 53/119/30 55/120/30
f 54/121/31 50/122/31 52/123/31 56/124/31
f 58/125/32 57/126/32 59/127/32 60/128/32
f 63/129/33 61/130/33 62/131/33 64/132/33
f 59/133/34 57/134/34 61/135/34 63/136/34
f 62/137/35 58/138/35 60/139/35 64/140/35
f 65/141/36 66/142/36 68/143/36 67/144/36
f 69/145/37 70/146/37 72/147/37 71/148/37
f 74/149/38 73/150/38 75/151/38 76/152/38
f 79/153/39 77/154/39 78/155/39 80/156/39
f 77/157/40 73/158/40 74/159/40 78/160/40
f 76/161/41 75/162/41 79/163/41 80/164/41
f 75/165/42 73/166/42 77/167/42 79/168/42
f 78/169/43 74/170/43 76/171/43 80/172/43
g slats
v 0.5 0.578125 0.46875
v 0.5 0.578125 0.42625
v 0.5 0.43923625 0.46875
v 0.5 0.43923625 0.42625
v -0.5 0.578125 0.46875
v -0.5 0.578125 0.42625
v -0.5 0.43923625 0.46875
v -0.5 0.43923625 0.42625
v 0.5 0.39294 0.46875
v 0.5 0.39294 0.42625
v 0.5 0.254050625 0.46875
v 0.5 0.254050625 0.42625
v -0.5 0.39294 0.46875
v -0.5 0.39294 0.42625
v -0.5 0.254050625 0.46875
v -0.5 0.254050625 0.42625
v 0.5 0.207754375 0.46875
v 0.5 0.207754375 0.42625
v 0.5 0.06886562499999999 0.46875
v 0.5 0.06886562499999999 0.42625
v -0.5 0.207754375 0.46875
v -0.5 0.207754375 0.42625
v -0.5 0.06886562499999999 0.46875
v -0.5 0.06886562499999999 0.42625
v 0.5 -0.0005787499999999612 0.2775
v 0.5 -0.046875 0.2775
v 0.5 -0.0005787499999999612 0.405
v 0.5 -0.046875 0.405
v -0.5 -0.0005787499999999612 0.2775
v -0.5 -0.046875 0.2775
v -0.5 -0.0005787499999999612 0.405
v -0.5 -0.046875 0.405
v 0.5 -0.0005787499999999612 0.10749999999999998
v 0.5 -0.046875 0.10749999999999998
v 0.5 -0.0005787499999999612 0.235
v 0.5 -0.046875 0.235
v -0.5 -0.0005787499999999612 0.10749999999999998
v -0.5 -0.046875 0.10749999999999998
v -0.5 -0.0005787499999999612 0.235
v -0.5 -0.046875 0.235
v 0.5 -0.0005787499999999612 -0.0625
v 0.5 -0.046875 -0.0625
v 0.5 -0.0005787499999999612 0.065
v 0.5 -0.046875 0.065
v -0.5 -0.0005787499999999612 -0.0625
v -0.5 -0.046875 -0.0625
v -0.5 -0.0005787499999999612 0.065
v -0.5 -0.046875 0.065
vt 2 1
vt 0 1
vt 0 0.8125
vt 2 0.8125
vt 2 0.8125
vt 2 1
vt 0 1
vt 0 0.8125
vt 0 0.9375
vt 1 0.9375
vt 1 1
vt 0 1
vt 1 0.875
vt 1 0.9375
vt 0 0.9375
vt 0 0.875
vt 1 0.75
vt 1 0.875
vt 0 0.875
vt 0 0.75
vt 1 0.875
vt 0 0.875
vt 0 0.75
vt 1 0.75
vt 2 1
vt 0 1
vt 0 0.8125
vt 2 0.8125
vt 2 0.8125
vt 2 1
vt 0 1
vt 0 0.8125
vt 1 0.75
vt 0 0.75
vt 0 0.8125
vt 1 0.8125
vt 1 0.625
vt 1 0.6875
vt 0 0.6875
vt 0 0.625
vt 1 0.4375
vt 1 0.5625
vt 0 0.5625
vt 0 0.4375
vt 1 0.5625
vt 0 0.5625
vt 0 0.4375
vt 1 0.4375
vt 2 1
vt 0 1
vt 0 0.8125
vt 2 0.8125
vt 2 0.8125
vt 2 1
vt 0 1
vt 0 0.8125
vt 1 0.5625
vt 0 0.5625
vt 0 0.625
vt 1 0.625
vt 1 0.375
vt 1 0.4375
vt 0 0.4375
vt 0 0.375
vt 1 0.1875
vt 1 0.3125
vt 0 0.3125
vt 0 0.1875
vt 1 0.3125
vt 0 0.3125
vt 0 0.1875
vt 1 0.1875
vt 2 1
vt 0 1
vt 0 0.8125
vt 2 0.8125
vt 2 0.8125
vt 2 1
vt 0 1
vt 0 0.8125
vt 1 1
vt 0 1
vt 0 0.9375
vt 1 0.9375
vt 1 0.1875
vt 1 0.25
vt 0 0.25
vt 0 0.1875
vt 0 0.875
vt 0 0.75
vt 1 0.75
vt 1 0.875
vt 0 0.6875
vt 1 0.6875
vt 1 0.8125
vt 0 0.8125
vt 2 1
vt 0 1
vt 0 0.8125
vt 2 0.8125
vt 2 0.8125
vt 2 1
vt 0 1
vt 0 0.8125
vt 1 0.75
vt 0 0.75
vt 0 0.6875
vt 1 0.6875
vt 1 0.0625
vt 1 0.125
vt 0 0.125
vt 0 0.0625
vt 0 0.5625
vt 0 0.4375
vt 1 0.4375
vt 1 0.5625
vt 0 0.5
vt 1 0.5
vt 1 0.625
vt 0 0.625
vt 2 1
vt 0 1
vt 0 0.8125
vt 2 0.8125
vt 2 0.8125
vt 2 1
vt 0 1
vt 0 0.8125
vt 1 0.125
vt 0 0.125
vt 0 0.0625
vt 1 0.0625
vt 1 0
vt 1 0.0625
vt 0 0.0625
vt 0 0
vt 0 0.375
vt 0 0.24750000000000005
vt 1 0.24750000000000005
vt 1 0.375
vt 0 0.18500000000000227
vt 1 0.18500000000000227
vt 1 0.3125000000000022
vt 0 0.3125000000000022
vn 1 0 0
vn -1 0 0
vn 0 1 0
vn 0 -1 0
vn 0 0 1
vn 0 0 -1
vn 1 0 0
vn -1 0 0
vn 0 1 0
vn 0 -1 0
vn 0 0 1
vn 0 0 -1
vn 1 0 0
vn -1 0 0
vn 0 1 0
vn 0 -1 0
vn 0 0 1
vn 0 0 -1
vn 1 0 0
vn -1 0 0
vn 0 0 -1
vn 0 0 1
vn 0 1 0
vn 0 -1 0
vn 1 0 0
vn -1 0 0
vn 0 0 -1
vn 0 0 1
vn 0 1 0
vn 0 -1 0
vn 1 0 0
vn -1 0 0
vn 0 0 -1
vn 0 0 1
vn 0 1 0
vn 0 -1 0
usemtl m_4a0f3dec-69aa-694d-1399-c7cbbc7b6b3e
f 82/173/44 81/174/44 83/175/44 84/176/44
f 87/177/45 85/178/45 86/179/45 88/180/45
f 85/181/46 81/182/46 82/183/46 86/184/46
f 84/185/47 83/186/47 87/187/47 88/188/47
f 83/189/48 81/190/48 85/191/48 87/192/48
f 86/193/49 82/194/49 84/195/49 88/196/49
f 90/197/50 89/198/50 91/199/50 92/200/50
f 95/201/51 93/202/51 94/203/51 96/204/51
f 93/205/52 89/206/52 90/207/52 94/208/52
f 92/209/53 91/210/53 95/211/53 96/212/53
f 91/213/54 89/214/54 93/215/54 95/216/54
f 94/217/55 90/218/55 92/219/55 96/220/55
f 98/221/56 97/222/56 99/223/56 100/224/56
f 103/225/57 101/226/57 102/227/57 104/228/57
f 101/229/58 97/230/58 98/231/58 102/232/58
f 100/233/59 99/234/59 103/235/59 104/236/59
f 99/237/60 97/238/60 101/239/60 103/240/60
f 102/241/61 98/242/61 100/243/61 104/244/61
f 106/245/62 105/246/62 107/247/62 108/248/62
f 111/249/63 109/250/63 110/251/63 112/252/63
f 109/253/64 105/254/64 106/255/64 110/256/64
f 108/257/65 107/258/65 111/259/65 112/260/65
f 107/261/66 105/262/66 109/263/66 111/264/66
f 110/265/67 106/266/67 108/267/67 112/268/67
f 114/269/68 113/270/68 115/271/68 116/272/68
f 119/273/69 117/274/69 118/275/69 120/276/69
f 117/277/70 113/278/70 114/279/70 118/280/70
f 116/281/71 115/282/71 119/283/71 120/284/71
f 115/285/72 113/286/72 117/287/72 119/288/72
f 118/289/73 114/290/73 116/291/73 120/292/73
f 122/293/74 121/294/74 123/295/74 124/296/74
f 127/297/75 125/298/75 126/299/75 128/300/75
f 125/301/76 121/302/76 122/303/76 126/304/76
f 124/305/77 123/306/77 127/307/77 128/308/77
f 123/309/78 121/310/78 125/311/78 127/312/78
f 126/313/79 122/314/79 124/315/79 128/316/79
