# Made in Blockbench 5.1.6
mtllib table.mtl

g side
v -0.38888875 0.08532625 -0.20400645390664912
v -0.38888875 0.08532625 -0.31939137187340366
v -0.5 0.08532625 -0.20400645390664912
v -0.5 0.08532625 -0.31939137187340366
v -0.38888875 0.13695625 -0.3770834374999999
v -0.38888875 0.08532625 -0.3770834374999999
v -0.38888875 0.13695625 0.3729165625
v -0.38888875 0.08532625 0.3729165625
v -0.5 0.13695625 -0.3770834374999999
v -0.5 0.08532625 -0.3770834374999999
v -0.5 0.13695625 0.3729165625
v -0.5 0.08532625 0.3729165625
v -0.38888875 0.08532625 -0.3770834374999999
v -0.38888875 0.13695625 -0.3770834374999999
v -0.5 0.08532625 -0.3770834374999999
v -0.5 0.13695625 -0.3770834374999999
v 0.5 0.13695625 -0.3770834374999999
v 0.5 0.08532625 -0.3770834374999999
v 0.5 0.13695625 0.3729165625
v 0.5 0.08532625 0.3729165625
v 0.38888875 0.13695625 -0.3770834374999999
v 0.38888875 0.08532625 -0.3770834374999999
v 0.38888875 0.13695625 0.3729165625
v 0.38888875 0.08532625 0.3729165625
v 0.3770834374999999 0.13695625 0.5
v 0.3770834374999999 0.08532624999999999 0.5
v -0.3729165625 0.13695625 0.5
v -0.3729165625 0.08532624999999999 0.5
v 0.3770834374999999 0.13695625 0.38888875000000006
v 0.3770834374999999 0.08532624999999999 0.38888875000000006
v -0.3729165625 0.13695625 0.38888875000000006
v -0.3729165625 0.08532624999999999 0.38888875000000006
v 0.3770834374999999 0.13695625 -0.38888875
v 0.3770834374999999 0.08532624999999999 -0.38888875
v -0.3729165625 0.13695625 -0.38888875
v -0.3729165625 0.08532624999999999 -0.38888875
v 0.3770834374999999 0.13695625 -0.5
v 0.3770834374999999 0.08532624999999999 -0.5
v -0.3729165625 0.13695625 -0.5
v -0.3729165625 0.08532624999999999 -0.5
v -0.444444375 0.08532625 0.3782050542966754
v -0.444444375 0.08532625 0.0032050542966754747
v -0.444444375 -0.12119562499999999 0.3782050542966754
v -0.444444375 -0.12119562499999999 0.0032050542966754747
v 0.444444375 0.08532625 0.3782050542966754
v 0.444444375 0.08532625 0.0032050542966754747
v 0.444444375 -0.12119562499999999 0.3782050542966754
v 0.444444375 -0.12119562499999999 0.0032050542966754747
v -0.444444375 0.08532625 -0.3719550542966754
v -0.444444375 0.08532625 0.003044945703324531
v -0.444444375 -0.12119562499999999 -0.3719550542966754
v -0.444444375 -0.12119562499999999 0.003044945703324531
v 0.444444375 0.08532625 -0.3719550542966754
v 0.444444375 0.08532625 0.003044945703324531
v 0.444444375 -0.12119562499999999 -0.3719550542966754
v 0.444444375 -0.12119562499999999 0.003044945703324531
v -0.3782050542966754 0.08532625 -0.444444375
v -0.0032050542966754747 0.08532625 -0.444444375
v -0.3782050542966754 -0.12119562499999999 -0.444444375
v -0.0032050542966754747 -0.12119562499999999 -0.444444375
v 0.3719550542966754 0.08532625 -0.444444375
v -0.003044945703324531 0.08532625 -0.444444375
v 0.3719550542966754 -0.12119562499999999 -0.444444375
v -0.003044945703324531 -0.12119562499999999 -0.444444375
v 0.3719550542966754 0.08532625 0.44444437500000006
v -0.003044945703324531 0.08532625 0.44444437500000006
v 0.3719550542966754 -0.12119562499999999 0.44444437500000006
v -0.003044945703324531 -0.12119562499999999 0.44444437500000006
v -0.3782050542966754 0.08532625 0.44444437500000006
v -0.0032050542966754747 0.08532625 0.44444437500000006
v -0.3782050542966754 -0.12119562499999999 0.44444437500000006
v -0.0032050542966754747 -0.12119562499999999 0.44444437500000006
v -0.375 0.225 -0.3770834375
v -0.375 0.225 -0.5020834375000001
v -0.49845694444444444 0.225 -0.3770834375
v -0.49845694444444444 0.225 -0.5020834375000001
v -0.37654305555555556 0.22282625 -0.3770834375
v -0.37654305555555556 0.22282625 -0.5020834374999998
v -0.37654305555555556 -0.5 -0.3770834375
v -0.37654305555555556 -0.5 -0.5020834374999998
v -0.5 0.22282625 -0.3770834375
v -0.5 0.22282625 -0.5020834374999998
v -0.5 -0.5 -0.3770834375
v -0.5 -0.5 -0.5020834374999998
v 0.5 0.225 -0.3770834375
v 0.5 0.225 -0.5020834375000001
v 0.3765430555555556 0.225 -0.3770834375
v 0.3765430555555556 0.225 -0.5020834375000001
v 0.49845694444444444 0.22282625 -0.3770834375
v 0.49845694444444444 0.22282625 -0.5020834374999998
v 0.49845694444444444 -0.5 -0.3770834375
v 0.49845694444444444 -0.5 -0.5020834374999998
v 0.375 0.22282625 -0.3770834375
v 0.375 0.22282625 -0.5020834374999998
v 0.375 -0.5 -0.3770834375
v 0.375 -0.5 -0.5020834374999998
v 0.5 0.225 0.4979165625
v 0.5 0.225 0.37291656249999994
v 0.3765430555555556 0.225 0.4979165625
v 0.3765430555555556 0.225 0.37291656249999994
v 0.49845694444444444 0.22282625 0.4979165625
v 0.49845694444444444 0.22282625 0.37291656250000005
v 0.49845694444444444 -0.5 0.4979165625
v 0.49845694444444444 -0.5 0.37291656250000005
v 0.375 0.22282625 0.4979165625
v 0.375 0.22282625 0.37291656250000005
v 0.375 -0.5 0.4979165625
v 0.375 -0.5 0.37291656250000005
v -0.375 0.225 0.4979165625
v -0.375 0.225 0.37291656249999994
v -0.49845694444444444 0.225 0.4979165625
v -0.49845694444444444 0.225 0.37291656249999994
v -0.37654305555555556 0.22282625 0.4979165625
v -0.37654305555555556 0.22282625 0.37291656250000005
v -0.37654305555555556 -0.5 0.4979165625
v -0.37654305555555556 -0.5 0.37291656250000005
v -0.5 0.22282625 0.4979165625
v -0.5 0.22282625 0.37291656250000005
v -0.5 -0.5 0.4979165625
v -0.5 -0.5 0.37291656250000005
v 0.375 -0.12499999999999999 -0.40625
v 0.375 -0.12499999999999999 -0.46875
v 0.375 -0.1875 -0.40625
v 0.375 -0.1875 -0.46875
v -0.375 -0.12499999999999999 -0.40625
v -0.375 -0.12499999999999999 -0.46875
v -0.375 -0.1875 -0.40625
v -0.375 -0.1875 -0.46875
v -0.40625 -0.12499999999999999 -0.375
v -0.46875 -0.12499999999999999 -0.375
v -0.40625 -0.1875 -0.375
v -0.46875 -0.1875 -0.375
v -0.40625 -0.12499999999999999 0.375
v -0.46875 -0.12499999999999999 0.375
v -0.40625 -0.1875 0.375
v -0.46875 -0.1875 0.375
v -0.375 -0.12499999999999999 0.40625000000000006
v -0.375 -0.12499999999999999 0.46875000000000006
v -0.375 -0.1875 0.40625000000000006
v -0.375 -0.1875 0.46875000000000006
v 0.375 -0.12499999999999999 0.40625000000000006
v 0.375 -0.12499999999999999 0.46875000000000006
v 0.375 -0.1875 0.40625000000000006
v 0.375 -0.1875 0.46875000000000006
v 0.40625 -0.12499999999999999 0.375
v 0.46875 -0.12499999999999999 0.375
v 0.40625 -0.1875 0.375
v 0.46875 -0.1875 0.375
v 0.40625 -0.12499999999999999 -0.375
v 0.46875 -0.12499999999999999 -0.375
v 0.40625 -0.1875 -0.375
v 0.46875 -0.1875 -0.375
vt 0 0.875
vt 0.08333333333333333 0.875
vt 0.08333333333333333 1
vt 0 1
vt 0.5833333333333334 0.3125
vt 0.5833333333333334 0.375
vt 0.041666666666666664 0.375
vt 0.041666666666666664 0.3125
vt 0.625 0.125
vt 0.08333333333333333 0.125
vt 0.08333333333333333 0.0625
vt 0.625 0.0625
vt 0.625 0.125
vt 0.625 0.9375
vt 0.5416666666666666 0.9375
vt 0.5416666666666666 0.125
vt 0.08333333333333333 1
vt 0 1
vt 0 0.25
vt 0.08333333333333333 0.25
vt 0.5833333333333334 0.8125
vt 0.5833333333333334 0.875
vt 0.5 0.875
vt 0.5 0.8125
vt 0.625 0.1875
vt 0.625 0.25
vt 0.08333333333333333 0.25
vt 0.08333333333333333 0.1875
vt 0.625 0.1875
vt 0.08333333333333333 0.1875
vt 0.08333333333333333 0.125
vt 0.625 0.125
vt 0.125 0.0625
vt 0.125 0.875
vt 0.041666666666666664 0.875
vt 0.041666666666666664 0.0625
vt 0.08333333333333333 1
vt 0 1
vt 0 0.25
vt 0.08333333333333333 0.25
vt 0.625 0.1875
vt 0.625 0.25
vt 0.08333333333333333 0.25
vt 0.08333333333333333 0.1875
vt 0.625 0.1875
vt 0.08333333333333333 0.1875
vt 0.08333333333333333 0.125
vt 0.625 0.125
vt 0.125 0.0625
vt 0.125 0.875
vt 0.041666666666666664 0.875
vt 0.041666666666666664 0.0625
vt 0.08333333333333333 1
vt 0 1
vt 0 0.25
vt 0.08333333333333333 0.25
vt 0.5833333333333334 0.3125
vt 0.5833333333333334 0.375
vt 0.041666666666666664 0.375
vt 0.041666666666666664 0.3125
vt 0.625 0.125
vt 0.08333333333333333 0.125
vt 0.08333333333333333 0.0625
vt 0.625 0.0625
vt 0.625 0.125
vt 0.625 0.9375
vt 0.5416666666666666 0.9375
vt 0.5416666666666666 0.125
vt 0.08333333333333333 1
vt 0 1
vt 0 0.25
vt 0.08333333333333333 0.25
vt 0.6666666666666666 1
vt 1 1
vt 1 0.75
vt 0.6666666666666666 0.75
vt 0.6666666666666666 1
vt 1 1
vt 1 0.75
vt 0.6666666666666666 0.75
vt 0.6666666666666666 1
vt 1 1
vt 1 0.75
vt 0.6666666666666666 0.75
vt 0.6666666666666666 1
vt 1 1
vt 1 0.75
vt 0.6666666666666666 0.75
vt 0.6666666666666666 1
vt 1 1
vt 1 0.75
vt 0.6666666666666666 0.75
vt 0.6666666666666666 1
vt 1 1
vt 1 0.75
vt 0.6666666666666666 0.75
vt 0.6666666666666666 1
vt 1 1
vt 1 0.75
vt 0.6666666666666666 0.75
vt 0.6666666666666666 1
vt 1 1
vt 1 0.75
vt 0.6666666666666666 0.75
vt 0 0.875
vt 0.08333333333333333 0.875
vt 0.08333333333333333 1
vt 0 1
vt 0.2916666666666667 0.875
vt 0.20833333333333334 0.875
vt 0.20833333333333334 0
vt 0.2916666666666667 0
vt 0.6666666666666666 0
vt 0.6666666666666666 0.875
vt 0.5833333333333334 0.875
vt 0.5833333333333334 0
vt 0.08333333333333333 0.875
vt 0.08333333333333333 1
vt 0 1
vt 0 0.875
vt 0.3333333333333333 0
vt 0.3333333333333333 0.875
vt 0.25 0.875
vt 0.25 0
vt 0.6666666666666666 0.875
vt 0.5833333333333334 0.875
vt 0.5833333333333334 0
vt 0.6666666666666666 0
vt 0 0.875
vt 0.08333333333333333 0.875
vt 0.08333333333333333 1
vt 0 1
vt 0.2916666666666667 0.875
vt 0.20833333333333334 0.875
vt 0.20833333333333334 0
vt 0.2916666666666667 0
vt 0.6666666666666666 0
vt 0.6666666666666666 0.875
vt 0.5833333333333334 0.875
vt 0.5833333333333334 0
vt 0.08333333333333333 0.875
vt 0.08333333333333333 1
vt 0 1
vt 0 0.875
vt 0.3333333333333333 0
vt 0.3333333333333333 0.875
vt 0.25 0.875
vt 0.25 0
vt 0.6666666666666666 0.875
vt 0.5833333333333334 0.875
vt 0.5833333333333334 0
vt 0.6666666666666666 0
vt 0 0.875
vt 0.08333333333333333 0.875
vt 0.08333333333333333 1
vt 0 1
vt 0.2916666666666667 0.875
vt 0.20833333333333334 0.875
vt 0.20833333333333334 0
vt 0.2916666666666667 0
vt 0.6666666666666666 0
vt 0.6666666666666666 0.875
vt 0.5833333333333334 0.875
vt 0.5833333333333334 0
vt 0.08333333333333333 0.875
vt 0.08333333333333333 1
vt 0 1
vt 0 0.875
vt 0.3333333333333333 0
vt 0.3333333333333333 0.875
vt 0.25 0.875
vt 0.25 0
vt 0.6666666666666666 0.875
vt 0.5833333333333334 0.875
vt 0.5833333333333334 0
vt 0.6666666666666666 0
vt 0 0.875
vt 0.08333333333333333 0.875
vt 0.08333333333333333 1
vt 0 1
vt 0.2916666666666667 0.875
vt 0.20833333333333334 0.875
vt 0.20833333333333334 0
vt 0.2916666666666667 0
vt 0.6666666666666666 0
vt 0.6666666666666666 0.875
vt 0.5833333333333334 0.875
vt 0.5833333333333334 0
vt 0.08333333333333333 0.875
vt 0.08333333333333333 1
vt 0 1
vt 0 0.875
vt 0.3333333333333333 0
vt 0.3333333333333333 0.875
vt 0.25 0.875
vt 0.25 0
vt 0.6666666666666666 0.875
vt 0.5833333333333334 0.875
vt 0.5833333333333334 0
vt 0.6666666666666666 0
vt 0.75 1
vt 0 1
vt 0 0.9375
vt 0.75 0.9375
vt 0.75 0.9375
vt 0.75 1
vt 0 1
vt 0 0.9375
vt 0 0.6249999999999971
vt 0.5 0.6249999999999971
vt 0.5 0.6874999999999971
vt 0 0.6874999999999971
vt 0.5 0.5625000000000029
vt 0.5 0.6250000000000029
vt 0 0.6250000000000029
vt 0 0.5625000000000029
vt 0.5 0.9374999999999971
vt 0.5 0.9999999999999971
vt 0 0.9999999999999971
vt 0 0.9374999999999971
vt 0.5833333333333334 0.9999999999999971
vt 0.08333333333333333 0.9999999999999971
vt 0.08333333333333333 0.9374999999999971
vt 0.5833333333333334 0.9374999999999971
vt 0.75 1
vt 0 1
vt 0 0.9375
vt 0.75 0.9375
vt 0.75 0.9375
vt 0.75 1
vt 0 1
vt 0 0.9375
vt 0.2916666666666667 0.2499999999999971
vt 0.2916666666666667 0.9999999999999971
vt 0.25 0.9999999999999971
vt 0.25 0.2499999999999971
vt 0.25 0.25
vt 0.2916666666666667 0.25
vt 0.2916666666666667 1
vt 0.25 1
vt 0.5 0.9374999999999971
vt 0.5 0.9999999999999971
vt 0 0.9999999999999971
vt 0 0.9374999999999971
vt 0.5000000000000019 0.9999999999999971
vt 1.887379141862766e-15 0.9999999999999971
vt 1.887379141862766e-15 0.9374999999999971
vt 0.5000000000000019 0.9374999999999971
vt 0.75 1
vt 0 1
vt 0 0.9375
vt 0.75 0.9375
vt 0.75 0.9375
vt 0.75 1
vt 0 1
vt 0 0.9375
vt 0.5 0.6874999999999971
vt 0 0.6874999999999971
vt 0 0.6249999999999971
vt 0.5 0.6249999999999971
vt 0 0.6250000000000029
vt 0 0.5625000000000029
vt 0.5 0.5625000000000029
vt 0.5 0.6250000000000029
vt 0.5 0.9374999999999971
vt 0.5 0.9999999999999971
vt 0 0.9999999999999971
vt 0 0.9374999999999971
vt 0.5 0.9999999999999971
vt 0 0.9999999999999971
vt 0 0.9374999999999971
vt 0.5 0.9374999999999971
vt 0.75 1
vt 0 1
vt 0 0.9375
vt 0.75 0.9375
vt 0.75 0.9375
vt 0.75 1
vt 0 1
vt 0 0.9375
vt 0.25 0.9999999999999971
vt 0.25 0.2499999999999971
vt 0.2916666666666667 0.2499999999999971
vt 0.2916666666666667 0.9999999999999971
vt 0.2916666666666667 1
vt 0.25 1
vt 0.25 0.25
vt 0.2916666666666667 0.25
vt 0.5000000000000019 0.9374999999999971
vt 0.5000000000000019 0.9999999999999971
vt 1.887379141862766e-15 0.9999999999999971
vt 1.887379141862766e-15 0.9374999999999971
vt 0.5 1
vt 0 1
vt 0 0.9375
vt 0.5 0.9375
vn 0 1 0
vn 1 0 0
vn -1 0 0
vn 0 1 0
vn 0 -1 0
vn 0 0 1
vn 1 0 0
vn -1 0 0
vn 0 1 0
vn 0 -1 0
vn 0 0 1
vn 0 0 -1
vn 0 1 0
vn 0 -1 0
vn 0 0 1
vn 0 0 -1
vn 0 1 0
vn 0 -1 0
vn -1 0 0
vn -1 0 0
vn 1 0 0
vn 1 0 0
vn 0 0 -1
vn 0 0 1
vn 0 0 1
vn 0 0 -1
vn 0 1 0
vn 1 0 0
vn -1 0 0
vn 0 -1 0
vn 0 0 1
vn 0 0 -1
vn 0 1 0
vn 1 0 0
vn -1 0 0
vn 0 -1 0
vn 0 0 1
vn 0 0 -1
vn 0 1 0
vn 1 0 0
vn -1 0 0
vn 0 -1 0
vn 0 0 1
vn 0 0 -1
vn 0 1 0
vn 1 0 0
vn -1 0 0
vn 0 -1 0
vn 0 0 1
vn 0 0 -1
vn 1 0 0
vn -1 0 0
vn 0 1 0
vn 0 -1 0
vn 0 0 1
vn 0 0 -1
vn 0 0 -1
vn 0 0 1
vn 0 1 0
vn 0 -1 0
vn 1 0 0
vn -1 0 0
vn -1 0 0
vn 1 0 0
vn 0 1 0
vn 0 -1 0
vn 0 0 -1
vn 0 0 1
vn 0 0 1
vn 0 0 -1
vn 0 1 0
vn 0 -1 0
vn -1 0 0
vn 1 0 0
usemtl m_b70d5294-51f2-f900-9345-0c75707c7636
f 3/1/1 1/2/1 2/3/1 4/4/1
f 6/5/2 5/6/2 7/7/2 8/8/2
f 11/9/3 9/10/3 10/11/3 12/12/3
f 7/13/4 5/14/4 9/15/4 11/16/4
f 10/17/5 6/18/5 8/19/5 12/20/5
f 13/21/6 14/22/6 16/23/6 15/24/6
f 18/25/7 17/26/7 19/27/7 20/28/7
f 23/29/8 21/30/8 22/31/8 24/32/8
f 19/33/9 17/34/9 21/35/9 23/36/9
f 22/37/10 18/38/10 20/39/10 24/40/10
f 26/41/11 25/42/11 27/43/11 28/44/11
f 31/45/12 29/46/12 30/47/12 32/48/12
f 27/49/13 25/50/13 29/51/13 31/52/13
f 30/53/14 26/54/14 28/55/14 32/56/14
f 34/57/15 33/58/15 35/59/15 36/60/15
f 39/61/16 37/62/16 38/63/16 40/64/16
f 35/65/17 33/66/17 37/67/17 39/68/17
f 38/69/18 34/70/18 36/71/18 40/72/18
f 41/73/19 42/74/19 44/75/19 43/76/19
f 45/77/20 46/78/20 48/79/20 47/80/20
f 49/81/21 50/82/21 52/83/21 51/84/21
f 53/85/22 54/86/22 56/87/22 55/88/22
f 57/89/23 58/90/23 60/91/23 59/92/23
f 61/93/24 62/94/24 64/95/24 63/96/24
f 65/97/25 66/98/25 68/99/25 67/100/25
f 69/101/26 70/102/26 72/103/26 71/104/26
f 75/105/27 73/106/27 74/107/27 76/108/27
f 78/109/28 77/110/28 79/111/28 80/112/28
f 83/113/29 81/114/29 82/115/29 84/116/29
f 80/117/30 79/118/30 83/119/30 84/120/30
f 79/121/31 77/122/31 81/123/31 83/124/31
f 82/125/32 78/126/32 80/127/32 84/128/32
f 87/129/33 85/130/33 86/131/33 88/132/33
f 90/133/34 89/134/34 91/135/34 92/136/34
f 95/137/35 93/138/35 94/139/35 96/140/35
f 92/141/36 91/142/36 95/143/36 96/144/36
f 91/145/37 89/146/37 93/147/37 95/148/37
f 94/149/38 90/150/38 92/151/38 96/152/38
f 99/153/39 97/154/39 98/155/39 100/156/39
f 102/157/40 101/158/40 103/159/40 104/160/40
f 107/161/41 105/162/41 106/163/41 108/164/41
f 104/165/42 103/166/42 107/167/42 108/168/42
f 103/169/43 101/170/43 105/171/43 107/172/43
f 106/173/44 102/174/44 104/175/44 108/176/44
f 111/177/45 109/178/45 110/179/45 112/180/45
f 114/181/46 113/182/46 115/183/46 116/184/46
f 119/185/47 117/186/47 118/187/47 120/188/47
f 116/189/48 115/190/48 119/191/48 120/192/48
f 115/193/49 113/194/49 117/195/49 119/196/49
f 118/197/50 114/198/50 116/199/50 120/200/50
usemtl none
f 122/201/51 121/202/51 123/203/51 124/204/51
f 127/205/52 125/206/52 126/207/52 128/208/52
usemtl m_b70d5294-51f2-f900-9345-0c75707c7636
f 125/209/53 121/210/53 122/211/53 126/212/53
f 124/213/54 123/214/54 127/215/54 128/216/54
f 123/217/55 121/218/55 125/219/55 127/220/55
f 126/221/56 122/222/56 124/223/56 128/224/56
usemtl none
f 130/225/57 129/226/57 131/227/57 132/228/57
f 135/229/58 133/230/58 134/231/58 136/232/58
usemtl m_b70d5294-51f2-f900-9345-0c75707c7636
f 133/233/59 129/234/59 130/235/59 134/236/59
f 132/237/60 131/238/60 135/239/60 136/240/60
f 131/241/61 129/242/61 133/243/61 135/244/61
f 134/245/62 130/246/62 132/247/62 136/248/62
usemtl none
f 138/249/63 137/250/63 139/251/63 140/252/63
f 143/253/64 141/254/64 142/255/64 144/256/64
usemtl m_b70d5294-51f2-f900-9345-0c75707c7636
f 141/257/65 137/258/65 138/259/65 142/260/65
f 140/261/66 139/262/66 143/263/66 144/264/66
f 139/265/67 137/266/67 141/267/67 143/268/67
f 142/269/68 138/270/68 140/271/68 144/272/68
usemtl none
f 146/273/69 145/274/69 147/275/69 148/276/69
f 151/277/70 149/278/70 150/279/70 152/280/70
usemtl m_b70d5294-51f2-f900-9345-0c75707c7636
f 149/281/71 145/282/71 146/283/71 150/284/71
f 148/285/72 147/286/72 151/287/72 152/288/72
f 147/289/73 145/290/73 149/291/73 151/292/73
f 150/293/74 146/294/74 148/295/74 152/296/74
g slats
v 0.37124999999999997 0.18692125000000004 -0.375
v 0.37124999999999997 0.140625 -0.375
v 0.49875 0.18692125000000004 -0.375
v 0.49875 0.140625 -0.375
v 0.37124999999999997 0.18692125000000004 0.375
v 0.37124999999999997 0.140625 0.375
v 0.49875 0.18692125000000004 0.375
v 0.49875 0.140625 0.375
v -0.50375 0.18692125000000004 -0.375
v -0.50375 0.140625 -0.375
v -0.37625 0.18692125000000004 -0.375
v -0.37625 0.140625 -0.375
v -0.50375 0.18692125000000004 0.375
v -0.50375 0.140625 0.375
v -0.37625 0.18692125000000004 0.375
v -0.37625 0.140625 0.375
v 0.375 0.18692125000000004 0.37124999999999997
v 0.375 0.140625 0.37124999999999997
v 0.375 0.18692125000000004 0.49875
v 0.375 0.140625 0.49875
v -0.375 0.18692125000000004 0.37124999999999997
v -0.375 0.140625 0.37124999999999997
v -0.375 0.18692125000000004 0.49875
v -0.375 0.140625 0.49875
v 0.375 0.18692125000000004 -0.50375
v 0.375 0.140625 -0.50375
v 0.375 0.18692125000000004 -0.37625
v 0.375 0.140625 -0.37625
v -0.375 0.18692125000000004 -0.50375
v -0.375 0.140625 -0.50375
v -0.375 0.18692125000000004 -0.37625
v -0.375 0.140625 -0.37625
v 0.375 0.18692125000000004 0.19625
v 0.375 0.140625 0.19625
v 0.375 0.18692125000000004 0.32375000000000004
v 0.375 0.140625 0.32375000000000004
v -0.375 0.18692125000000004 0.19625
v -0.375 0.140625 0.19625
v -0.375 0.18692125000000004 0.32375000000000004
v -0.375 0.140625 0.32375000000000004
v -0.375 0.18692125000000004 0.14125000000000001
v -0.375 0.140625 0.14125000000000001
v -0.375 0.18692125000000004 0.013749999999999984
v -0.375 0.140625 0.013749999999999984
v 0.375 0.18692125000000004 0.14125000000000001
v 0.375 0.140625 0.14125000000000001
v 0.375 0.18692125000000004 0.013749999999999984
v 0.375 0.140625 0.013749999999999984
v 0.375 0.18692125000000004 -0.14125000000000001
v 0.375 0.140625 -0.14125000000000001
v 0.375 0.18692125000000004 -0.013749999999999984
v 0.375 0.140625 -0.013749999999999984
v -0.375 0.18692125000000004 -0.14125000000000001
v -0.375 0.140625 -0.14125000000000001
v -0.375 0.18692125000000004 -0.013749999999999984
v -0.375 0.140625 -0.013749999999999984
v -0.375 0.18692125000000004 -0.19624999999999992
v -0.375 0.140625 -0.19624999999999992
v -0.375 0.18692125000000004 -0.32375
v -0.375 0.140625 -0.32375
v 0.375 0.18692125000000004 -0.19624999999999992
v 0.375 0.140625 -0.19624999999999992
v 0.375 0.18692125000000004 -0.32375
v 0.375 0.140625 -0.32375
vt 1 1
vt 0 1
vt 0 0.9375
vt 1 0.9375
vt 1 0.1875
vt 1 0.25
vt 0 0.25
vt 0 0.1875
vt 0 0.875
vt 0 0.75
vt 1 0.75
vt 1 0.875
vt 0 0.6875
vt 1 0.6875
vt 1 0.8125
vt 0 0.8125
vt 1 1
vt 0 1
vt 0 0.9375
vt 1 0.9375
vt 1 0.1875
vt 1 0.25
vt 0 0.25
vt 0 0.1875
vt 0 0.875
vt 0 0.75
vt 1 0.75
vt 1 0.875
vt 0 0.6875
vt 1 0.6875
vt 1 0.8125
vt 0 0.8125
vt 1 1
vt 0 1
vt 0 0.9375
vt 1 0.9375
vt 1 0.1875
vt 1 0.25
vt 0 0.25
vt 0 0.1875
vt 0 0.875
vt 0 0.75
vt 1 0.75
vt 1 0.875
vt 0 0.6875
vt 1 0.6875
vt 1 0.8125
vt 0 0.8125
vt 1 1
vt 0 1
vt 0 0.9375
vt 1 0.9375
vt 1 0.1875
vt 1 0.25
vt 0 0.25
vt 0 0.1875
vt 0 0.875
vt 0 0.75
vt 1 0.75
vt 1 0.875
vt 0 0.6875
vt 1 0.6875
vt 1 0.8125
vt 0 0.8125
vt 1 1
vt 0 1
vt 0 0.9375
vt 1 0.9375
vt 1 0.1875
vt 1 0.25
vt 0 0.25
vt 0 0.1875
vt 0 0.875
vt 0 0.75
vt 1 0.75
vt 1 0.875
vt 0 0.6875
vt 1 0.6875
vt 1 0.8125
vt 0 0.8125
vt 1 1
vt 0 1
vt 0 0.9375
vt 1 0.9375
vt 1 0.1875
vt 1 0.25
vt 0 0.25
vt 0 0.1875
vt 0 0.875
vt 0 0.75
vt 1 0.75
vt 1 0.875
vt 0 0.6875
vt 1 0.6875
vt 1 0.8125
vt 0 0.8125
vt 1 1
vt 0 1
vt 0 0.9375
vt 1 0.9375
vt 1 0.1875
vt 1 0.25
vt 0 0.25
vt 0 0.1875
vt 0 0.875
vt 0 0.75
vt 1 0.75
vt 1 0.875
vt 0 0.6875
vt 1 0.6875
vt 1 0.8125
vt 0 0.8125
vt 1 1
vt 0 1
vt 0 0.9375
vt 1 0.9375
vt 1 0.1875
vt 1 0.25
vt 0 0.25
vt 0 0.1875
vt 0 0.875
vt 0 0.75
vt 1 0.75
vt 1 0.875
vt 0 0.6875
vt 1 0.6875
vt 1 0.8125
vt 0 0.8125
vn -1 0 0
vn 1 0 0
vn 0 1 0
vn 0 -1 0
vn -1 0 0
vn 1 0 0
vn 0 1 0
vn 0 -1 0
vn 0 0 -1
vn 0 0 1
vn 0 1 0
vn 0 -1 0
vn 0 0 -1
vn 0 0 1
vn 0 1 0
vn 0 -1 0
vn 0 0 -1
vn 0 0 1
vn 0 1 0
vn 0 -1 0
vn 0 0 1
vn 0 0 -1
vn 0 1 0
vn 0 -1 0
vn 0 0 -1
vn 0 0 1
vn 0 1 0
vn 0 -1 0
vn 0 0 1
vn 0 0 -1
vn 0 1 0
vn 0 -1 0
usemtl m_4a0f3dec-69aa-694d-1399-c7cbbc7b6b3e
f 157/297/75 153/298/75 154/299/75 158/300/75
f 156/301/76 155/302/76 159/303/76 160/304/76
f 155/305/77 153/306/77 157/307/77 159/308/77
f 158/309/78 154/310/78 156/311/78 160/312/78
f 165/313/79 161/314/79 162/315/79 166/316/79
f 164/317/80 163/318/80 167/319/80 168/320/80
f 163/321/81 161/322/81 165/323/81 167/324/81
f 166/325/82 162/326/82 164/327/82 168/328/82
f 173/329/83 169/330/83 170/331/83 174/332/83
f 172/333/84 171/334/84 175/335/84 176/336/84
f 171/337/85 169/338/85 173/339/85 175/340/85
f 174/341/86 170/342/86 172/343/86 176/344/86
f 181/345/87 177/346/87 178/347/87 182/348/87
f 180/349/88 179/350/88 183/351/88 184/352/88
f 179/353/89 177/354/89 181/355/89 183/356/89
f 182/357/90 178/358/90 180/359/90 184/360/90
f 189/361/91 185/362/91 186/363/91 190/364/91
f 188/365/92 187/366/92 191/367/92 192/368/92
f 187/369/93 185/370/93 189/371/93 191/372/93
f 190/373/94 186/374/94 188/375/94 192/376/94
f 197/377/95 193/378/95 194/379/95 198/380/95
f 196/381/96 195/382/96 199/383/96 200/384/96
f 195/385/97 193/386/97 197/387/97 199/388/97
f 198/389/98 194/390/98 196/391/98 200/392/98
f 205/393/99 201/394/99 202/395/99 206/396/99
f 204/397/100 203/398/100 207/399/100 208/400/100
f 203/401/101 201/402/101 205/403/101 207/404/101
f 206/405/102 202/406/102 204/407/102 208/408/102
f 213/409/103 209/410/103 210/411/103 214/412/103
f 212/413/104 211/414/104 215/415/104 216/416/104
f 211/417/105 209/418/105 213/419/105 215/420/105
f 214/421/106 210/422/106 212/423/106 216/424/106
